<?xml version="1.0" encoding="utf-8"?>
<svg version="1.1" viewBox="0 0 310 350" xmlns="http://www.w3.org/2000/svg">
  <path d="M 156.4 339.5 C 188.2 337 215.8 312.7 236.6 291 C 264.9 261.5 277.1 244 292.7 205.9 C 306.7 171.6 313.4 130.3 295 94.9 C 276.9 60.1 239.3 36.9 204.6 22.6 C 192.9 17.8 180.5 13.8 167.8 11.1 L 167.051 10.952 L 166.3 10.8 C 138.6 5 109.7 4.8 83.9 13.8 C 45.1 27.4 19.9 62.6 17.1 104.1 C 14.1 148 34.9 192.4 50.8 232.9 C 56.1 246.4 61.2 260 65.7 273.8 C 77.5 309.9 111 343 156.4 339.5 Z"/>
</svg>